<?xml version="1.0" encoding="UTF-8"?>
<svg width="32px" height="32px" viewBox="0 0 32 32" version="1.1" xmlns="http://www.w3.org/2000/svg" xmlns:xlink="http://www.w3.org/1999/xlink">
    <!-- Generator: sketchtool 49.1 (51147) - http://www.bohemiancoding.com/sketch -->
    <title>903B4100-DA5B-4535-BB85-DA12AAE7E843</title>
    <desc>Created with sketchtool.</desc>
    <defs></defs>
    <g id="z" stroke="none" stroke-width="1" fill="none" fill-rule="evenodd">
        <g id="1-2-Home-Page-Menu-click" transform="translate(-696.000000, -40.000000)" fill="#FFFFFF" fill-rule="nonzero" stroke="#FFFFFF">
            <g id="Group-26">
                <g id="Navigation" transform="translate(40.000000, 29.000000)">
                    <g id="close" transform="translate(657.000000, 12.000000)">
                        <path d="M17.6531655,15.0003127 L29.4502929,3.20269341 C30.1832357,2.47034543 30.1832357,1.28207801 29.4502929,0.549730034 C28.7173501,-0.183243345 27.5303829,-0.183243345 26.7974401,0.549730034 L15.0003127,12.3473493 L3.20255988,0.549730034 C2.46961706,-0.183243345 1.28264993,-0.183243345 0.549707115,0.549730034 C-0.183235705,1.28207801 -0.183235705,2.47034543 0.549707115,3.20269341 L12.3474599,15.0003127 L0.549707115,26.797932 C-0.183235705,27.53028 -0.183235705,28.7185474 0.549707115,29.4508954 C0.916178525,29.8167567 1.3964687,30 1.8761335,30 C2.35579829,30 2.83608847,29.8167567 3.20255988,29.45027 L15.0003127,17.6526507 L26.7974401,29.45027 C27.1639115,29.8167567 27.6442017,30 28.1238665,30 C28.6035313,30 29.0838215,29.8167567 29.4502929,29.45027 C30.1832357,28.717922 30.1832357,27.5296546 29.4502929,26.7973066 L17.6531655,15.0003127 Z" id="Shape"></path>
                    </g>
                </g>
            </g>
        </g>
    </g>
</svg>